<svg width="18" height="24" viewBox="0 0 18 24" fill="none" xmlns="http://www.w3.org/2000/svg">
<g clip-path="url(#clip0_1414_111)">
<path d="M0.75 3.75C0.75 3.02065 1.03973 2.32118 1.55546 1.80546C2.07118 1.28973 2.77065 1 3.5 1L14.5 1C15.2293 1 15.9288 1.28973 16.4445 1.80546C16.9603 2.32118 17.25 3.02065 17.25 3.75V22.3125C17.2499 22.4369 17.2161 22.5589 17.1522 22.6655C17.0883 22.7722 16.9966 22.8595 16.887 22.9182C16.7774 22.9769 16.6539 23.0048 16.5296 22.9989C16.4054 22.9929 16.2852 22.9534 16.1816 22.8845L9 19.0139L1.81837 22.8845C1.71484 22.9534 1.59457 22.9929 1.47035 22.9989C1.34613 23.0048 1.22263 22.9769 1.113 22.9182C1.00337 22.8595 0.911706 22.7722 0.847782 22.6655C0.783858 22.5589 0.750064 22.4369 0.75 22.3125V3.75ZM3.5 2.375C3.13533 2.375 2.78559 2.51987 2.52773 2.77773C2.26987 3.03559 2.125 3.38533 2.125 3.75V21.0282L8.61913 17.6155C8.73196 17.5404 8.86447 17.5004 9 17.5004C9.13553 17.5004 9.26804 17.5404 9.38088 17.6155L15.875 21.0282V3.75C15.875 3.38533 15.7301 3.03559 15.4723 2.77773C15.2144 2.51987 14.8647 2.375 14.5 2.375H3.5Z" fill="#4A4A4A" stroke="#4A4A4A"/>
</g>
<defs>
<clipPath id="clip0_1414_111">
<rect width="18" height="24" fill="white"/>
</clipPath>
</defs>
</svg>
