<svg width="20" height="23" viewBox="0 0 20 23" fill="none" xmlns="http://www.w3.org/2000/svg">
<g clip-path="url(#clip0_1414_119)">
<path d="M1.375 2.875V22.2812C1.37491 22.4061 1.40732 22.5288 1.46905 22.6372C1.53077 22.7457 1.61969 22.8363 1.72703 22.8999C1.83438 22.9636 1.95646 22.9982 2.08125 23.0004C2.20605 23.0026 2.32926 22.9722 2.43875 22.9123L10 18.7867L17.5613 22.9123C17.6707 22.9722 17.794 23.0026 17.9187 23.0004C18.0435 22.9982 18.1656 22.9636 18.273 22.8999C18.3803 22.8363 18.4692 22.7457 18.531 22.6372C18.5927 22.5288 18.6251 22.4061 18.625 22.2812V2.875C18.625 2.1125 18.3221 1.38124 17.7829 0.842068C17.2438 0.302901 16.5125 0 15.75 0L4.25 0C3.4875 0 2.75624 0.302901 2.21707 0.842068C1.6779 1.38124 1.375 2.1125 1.375 2.875V2.875Z" fill="#333333"/>
</g>
<defs>
<clipPath id="clip0_1414_119">
<rect width="18.4" height="23" fill="white" transform="translate(0.799805)"/>
</clipPath>
</defs>
</svg>
